<?xml version="1.0" standalone="no"?>
<!DOCTYPE svg PUBLIC "-//W3C//DTD SVG 20010904//EN"
 "http://www.w3.org/TR/2001/REC-SVG-20010904/DTD/svg10.dtd">
<svg version="1.0" xmlns="http://www.w3.org/2000/svg"
 width="232.000000pt" height="255.000000pt" viewBox="0 0 232.000000 255.000000"
 preserveAspectRatio="xMidYMid meet">

<g transform="translate(0.000000,255.000000) scale(0.100000,-0.100000)"
fill="#000000" stroke="none">
<path d="M1092 2467 c-74 -43 -72 -161 4 -195 46 -22 83 -15 120 22 45 45 47
101 7 146 -32 36 -94 49 -131 27z"/>
<path d="M735 2394 c-8 -20 -15 -46 -15 -58 0 -31 48 -128 60 -121 5 3 7 0 5
-7 -7 -17 70 -102 84 -94 5 4 13 1 17 -5 5 -8 3 -9 -7 -4 -11 7 -11 5 1 -10
15 -18 15 -18 19 0 2 11 1 58 -1 105 -5 101 -36 184 -77 204 -60 31 -69 30
-86 -10z"/>
<path d="M1525 2420 c3 -5 0 -7 -9 -4 -28 11 -76 -25 -97 -72 -35 -83 -48
-254 -18 -254 8 0 24 20 24 33 0 4 3 6 6 5 12 -5 49 34 42 45 -3 6 -1 7 5 3
14 -8 46 39 37 54 -4 6 -1 9 6 8 7 -2 21 19 32 50 19 50 19 54 2 97 -9 25 -21
45 -26 45 -6 0 -7 -4 -4 -10z"/>
<path d="M1335 2303 c-5 -10 -7 -21 -7 -25 1 -5 -3 -7 -9 -5 -18 4 -77 -123
-88 -188 -5 -33 -7 -62 -5 -64 2 -3 28 3 57 12 l53 17 -4 93 c-2 51 1 110 7
132 11 41 9 58 -4 28z"/>
<path d="M952 2268 c5 -24 8 -82 5 -130 l-4 -87 45 -15 c25 -9 50 -16 55 -16
14 0 2 97 -18 147 -10 25 -22 40 -28 36 -6 -3 -7 -1 -3 5 9 14 -12 55 -24 47
-5 -3 -12 0 -16 6 -4 8 -3 9 4 5 19 -12 14 9 -7 28 -19 17 -19 16 -9 -26z"/>
<path d="M450 2193 c-64 -57 -43 -159 38 -183 113 -34 191 108 101 184 -43 36
-98 35 -139 -1z"/>
<path d="M706 2175 c4 -27 15 -74 25 -102 17 -50 68 -135 89 -148 5 -3 21 17
35 46 l26 51 -62 56 c-34 31 -76 77 -91 102 l-29 45 7 -50z"/>
<path d="M1572 2199 c-7 -11 -10 -24 -7 -30 4 -5 3 -9 -2 -8 -4 1 -41 -30 -82
-70 l-74 -71 18 -40 c23 -52 39 -65 55 -46 6 9 8 21 4 27 -4 8 -3 9 4 5 14 -9
46 39 36 55 -4 7 -3 9 4 5 13 -8 40 61 51 134 5 30 8 56 7 57 -1 1 -7 -7 -14
-18z"/>
<path d="M1694 2186 c-34 -34 -36 -40 -31 -83 12 -112 152 -139 201 -39 16 32
17 44 7 75 -15 51 -41 72 -95 78 -42 5 -48 3 -82 -31z"/>
<path d="M904 1942 c-16 -30 -30 -58 -32 -62 -3 -9 111 -70 131 -70 16 0 41
54 52 111 l6 34 -64 21 -63 21 -30 -55z"/>
<path d="M1286 1977 l-58 -20 6 -37 c3 -21 14 -56 23 -79 l18 -41 55 26 c91
42 92 45 56 114 -17 33 -33 59 -36 59 -3 -1 -31 -11 -64 -22z"/>
<path d="M1115 1923 c-4 -16 -14 -51 -24 -79 l-18 -52 39 -6 c22 -4 54 -4 72
-1 l31 6 -25 80 c-21 67 -28 79 -47 79 -17 0 -24 -7 -28 -27z"/>
<path d="M475 1887 c33 -25 75 -65 94 -90 36 -49 38 -50 112 -12 25 13 28 19
19 31 -7 7 -16 11 -21 8 -5 -3 -8 0 -7 8 2 7 -5 12 -14 12 -10 -1 -15 2 -13 7
8 11 -33 31 -47 23 -6 -4 -8 -3 -4 4 7 12 -64 38 -134 48 l-45 7 60 -46z"/>
<path d="M1773 1915 c-61 -17 -135 -53 -177 -87 l-28 -24 57 -28 c45 -22 59
-25 66 -15 4 7 5 17 2 23 -3 5 -1 6 5 2 13 -8 35 28 24 39 -4 5 -2 5 5 1 6 -3
15 -1 18 5 4 6 34 31 67 55 67 49 58 55 -39 29z"/>
<path d="M232 1895 l-33 -14 17 -38 c9 -21 18 -43 21 -50 11 -27 116 -56 217
-61 69 -3 97 -1 92 6 -4 6 -14 9 -24 6 -14 -5 -15 -4 -2 5 12 8 9 16 -20 46
-45 47 -96 78 -111 69 -7 -4 -9 -3 -6 3 8 13 -56 43 -91 43 -15 -1 -42 -7 -60
-15z"/>
<path d="M1931 1893 c-53 -23 -122 -73 -115 -84 3 -5 0 -8 -8 -7 -7 2 -12 -3
-10 -10 1 -8 -2 -11 -6 -8 -9 5 -31 -15 -47 -43 -13 -23 177 -9 247 19 31 12
59 27 61 34 3 6 12 28 21 48 l16 38 -36 15 c-45 18 -78 18 -123 -2z"/>
<path d="M816 1821 c-14 -16 -15 -23 -6 -40 6 -12 15 -19 20 -16 6 4 7 -1 3
-11 -5 -13 -3 -15 7 -9 9 5 11 4 6 -3 -4 -6 3 -30 14 -53 l22 -41 33 32 c19
18 31 38 28 44 -3 6 -3 8 2 4 9 -8 35 9 35 22 0 4 -8 10 -17 13 -10 2 -27 8
-37 13 -15 5 -17 4 -11 -6 6 -9 4 -11 -4 -6 -7 5 -10 11 -7 14 10 9 -33 34
-46 26 -6 -4 -8 -3 -5 3 4 6 1 16 -7 22 -10 8 -17 6 -30 -8z"/>
<path d="M1415 1809 c-22 -16 -55 -33 -72 -39 -37 -13 -41 -22 -15 -41 16 -13
16 -13 2 6 -14 18 -14 19 2 7 9 -8 15 -19 12 -26 -6 -17 22 -40 37 -30 7 4 9
3 6 -3 -4 -6 0 -16 8 -23 12 -10 16 -9 21 3 3 9 2 21 -2 28 -5 8 -3 9 6 4 10
-6 12 -4 7 9 -4 9 -3 15 1 12 4 -2 21 16 36 41 28 44 28 45 10 63 -18 17 -20
16 -59 -11z"/>
<path d="M690 1729 l-56 -30 21 -65 c19 -61 22 -65 45 -59 72 17 97 26 113 38
17 12 16 16 -15 77 -18 35 -37 64 -43 66 -5 1 -35 -11 -65 -27z"/>
<path d="M1523 1748 c-12 -15 -63 -115 -63 -123 0 -9 81 -42 121 -49 36 -6 37
-6 44 31 4 20 13 49 21 64 13 27 13 27 -44 55 -31 16 -60 30 -63 32 -3 1 -11
-3 -16 -10z"/>
<path d="M329 1676 c8 -9 20 -15 28 -12 8 3 11 2 8 -4 -13 -22 150 -90 217
-90 32 0 34 13 14 70 l-13 35 -104 0 c-57 0 -117 5 -134 10 -28 8 -29 7 -16
-9z"/>
<path d="M1910 1679 c-19 -5 -73 -8 -120 -7 l-85 3 -17 -50 -16 -50 33 -3 c46
-4 150 32 213 75 28 19 52 37 52 39 0 6 -20 3 -60 -7z"/>
<path d="M210 1583 c-40 -21 -66 -77 -56 -119 4 -15 20 -39 36 -55 42 -43 100
-41 146 5 89 89 -14 227 -126 169z"/>
<path d="M1973 1580 c-38 -23 -53 -48 -53 -90 0 -91 88 -138 167 -90 68 41 61
150 -12 185 -43 20 -63 19 -102 -5z"/>
<path d="M785 1539 c-27 -9 -62 -18 -77 -18 -24 -1 -28 -5 -28 -28 0 -26 5
-29 78 -50 88 -24 92 -22 92 47 0 65 -6 70 -65 49z"/>
<path d="M1440 1489 c0 -51 3 -70 13 -67 161 43 157 41 157 70 0 23 -4 28 -25
28 -14 0 -51 9 -82 20 -32 11 -59 20 -60 20 -2 0 -3 -32 -3 -71z"/>
<path d="M510 1392 c-63 -17 -128 -50 -180 -91 l-25 -21 35 11 c40 12 185 15
216 5 17 -5 24 -1 34 24 7 16 10 37 6 45 -3 9 -2 14 3 11 5 -3 11 3 14 14 6
25 -13 25 -103 2z"/>
<path d="M655 1341 l-20 -66 62 -32 63 -31 35 71 36 72 -38 17 c-22 9 -57 21
-79 26 l-39 9 -20 -66z"/>
<path d="M1565 1395 c-89 -21 -107 -32 -99 -58 13 -45 35 -78 46 -71 7 4 8 3
4 -4 -4 -7 -1 -20 6 -30 12 -17 16 -16 74 14 48 25 59 35 53 47 -5 8 -15 37
-22 64 l-12 49 -50 -11z"/>
<path d="M1687 1358 c8 -29 17 -56 19 -59 1 -3 27 -2 56 2 49 7 176 -4 202
-17 6 -3 -4 8 -22 26 -20 18 -40 29 -48 26 -9 -3 -12 -1 -9 4 8 13 -63 44
-133 59 -85 18 -83 19 -65 -41z"/>
<path d="M1387 1312 c-10 -10 -15 -22 -12 -25 3 -4 2 -5 -2 -2 -7 6 -63 -44
-63 -56 0 -5 19 -17 43 -28 23 -11 56 -29 73 -40 31 -21 31 -21 49 -1 14 16
15 23 6 34 -7 8 -27 42 -45 76 -31 58 -33 60 -49 42z"/>
<path d="M870 1307 c0 -7 -16 -39 -35 -72 -33 -54 -34 -59 -19 -76 17 -19 40
-16 28 3 -4 6 -3 8 3 5 6 -4 38 9 73 27 l63 34 -43 46 c-42 45 -70 59 -70 33z"/>
<path d="M373 1239 c-70 -13 -130 -45 -146 -76 -32 -63 -31 -68 23 -87 l50
-18 66 31 c36 17 63 35 60 40 -3 5 2 8 12 7 10 0 16 5 14 14 -2 8 0 12 4 7 10
-10 65 43 57 56 -3 6 -1 7 5 3 6 -3 14 -1 18 5 16 27 -69 37 -163 18z"/>
<path d="M1758 1243 c-15 -4 -14 -10 14 -44 17 -21 36 -38 42 -37 6 2 11 0 11
-3 0 -15 30 -39 42 -35 9 4 11 1 7 -6 -5 -8 -2 -9 10 -5 9 4 15 3 12 -2 -3 -5
17 -19 45 -31 50 -21 53 -21 95 -5 24 9 46 20 48 23 2 4 -5 26 -15 50 -14 33
-27 46 -61 61 -80 34 -192 49 -250 34z"/>
<path d="M565 1176 c-22 -28 -39 -54 -37 -59 1 -4 -1 -6 -5 -5 -15 4 -63 -34
-56 -45 3 -6 1 -7 -5 -3 -7 4 -20 2 -29 -3 -15 -9 -13 -10 13 -11 66 0 221 61
207 83 -3 6 -2 7 4 4 10 -6 53 19 53 31 0 5 -24 19 -52 33 l-53 26 -40 -51z"/>
<path d="M1618 1198 c-21 -12 -38 -25 -38 -29 0 -10 59 -53 105 -76 45 -23
145 -48 165 -41 8 2 -1 13 -23 27 -20 12 -61 49 -90 82 -30 32 -60 59 -68 59
-8 0 -31 -10 -51 -22z"/>
<path d="M1090 1133 c10 -32 21 -70 24 -85 5 -21 12 -28 31 -28 17 0 25 6 25
18 0 9 11 47 24 85 l23 67 -73 0 -73 0 19 -57z"/>
<path d="M952 1149 c-28 -12 -41 -23 -36 -30 4 -8 3 -9 -5 -5 -6 4 -18 2 -26
-4 -12 -10 -9 -21 17 -71 23 -45 36 -58 47 -54 9 4 38 12 64 18 48 12 49 13
43 45 -8 51 -37 122 -50 121 -6 0 -30 -9 -54 -20z"/>
<path d="M1256 1130 c-9 -22 -18 -57 -22 -77 -6 -38 -6 -38 38 -49 23 -7 52
-15 63 -18 17 -5 25 4 52 53 24 44 29 62 20 69 -17 14 -115 62 -126 62 -5 0
-16 -18 -25 -40z"/>
<path d="M798 1028 c-49 -65 -80 -142 -92 -228 -7 -43 -6 -44 9 -22 9 12 13
27 9 34 -4 6 -3 8 4 4 12 -7 55 48 44 58 -4 4 -2 6 3 4 14 -4 86 52 79 63 -3
5 2 6 10 3 9 -3 16 -1 16 5 0 13 -48 111 -54 111 -2 0 -15 -15 -28 -32z"/>
<path d="M1456 1051 c-4 -6 -4 -16 0 -23 4 -6 3 -8 -3 -5 -9 6 -43 -48 -43
-67 0 -15 56 -55 70 -50 8 3 11 2 8 -2 -10 -9 62 -95 73 -88 5 3 6 -1 4 -8 -3
-8 1 -22 8 -32 12 -17 13 -12 6 41 -13 93 -76 222 -101 207 -6 -4 -8 -3 -5 2
3 6 2 16 -2 23 -6 9 -11 10 -15 2z"/>
<path d="M464 959 c-27 -14 -54 -60 -54 -94 0 -62 45 -105 110 -105 89 0 138
84 93 160 -27 46 -96 64 -149 39z"/>
<path d="M1704 952 c-45 -36 -56 -90 -29 -142 19 -37 43 -50 94 -50 31 0 49 7
73 29 28 25 33 36 33 76 0 40 -5 51 -33 76 -38 34 -103 40 -138 11z"/>
<path d="M1000 942 l-45 -18 3 -84 c2 -47 -1 -105 -7 -130 -5 -24 -9 -46 -7
-47 9 -10 80 113 97 166 19 63 25 131 12 130 -5 0 -28 -8 -53 -17z"/>
<path d="M1226 928 c14 -86 27 -128 55 -176 16 -29 34 -50 39 -47 6 3 7 0 4
-8 -3 -8 2 -19 10 -26 12 -10 13 -7 5 26 -5 21 -8 81 -7 132 l2 95 -29 12
c-17 6 -42 14 -57 18 -26 6 -27 5 -22 -26z"/>
<path d="M832 832 c-39 -39 -62 -69 -58 -77 3 -8 0 -14 -6 -12 -6 1 -20 -19
-30 -45 -22 -51 -19 -99 6 -133 11 -16 17 -16 46 -6 51 17 69 39 91 111 14 49
19 88 17 146 l-3 79 -63 -63z"/>
<path d="M1386 842 c-7 -57 8 -149 36 -214 17 -39 27 -50 63 -64 24 -9 48 -14
53 -10 5 3 15 26 22 50 11 41 10 49 -14 102 -30 64 -82 133 -125 163 l-28 21
-7 -48z"/>
<path d="M1117 709 c-61 -16 -93 -72 -76 -132 22 -79 122 -105 180 -48 76 77
0 209 -104 180z"/>
<path d="M216 168 c13 -34 24 -63 24 -65 0 -2 6 -3 13 -3 7 0 18 20 25 45 7
25 16 45 21 45 5 0 15 -20 22 -45 7 -25 18 -45 24 -45 6 0 23 29 37 65 18 48
22 65 12 65 -7 0 -19 -18 -25 -40 -7 -22 -16 -40 -20 -40 -5 0 -14 18 -20 40
-8 26 -18 40 -29 40 -11 0 -21 -14 -29 -40 -6 -22 -15 -40 -20 -40 -4 0 -13
18 -20 40 -6 22 -18 40 -26 40 -10 0 -8 -14 11 -62z"/>
<path d="M1250 165 c0 -51 3 -65 15 -65 10 0 15 10 15 30 0 28 2 30 40 30 38
0 40 -2 40 -30 0 -20 5 -30 15 -30 12 0 15 14 15 65 0 51 -3 65 -15 65 -9 0
-15 -9 -15 -25 0 -22 -4 -25 -40 -25 -36 0 -40 3 -40 25 0 16 -6 25 -15 25
-12 0 -15 -14 -15 -65z"/>
<path d="M448 155 l4 -55 44 0 c24 0 44 5 44 10 0 6 -16 10 -35 10 -24 0 -35
5 -35 15 0 9 9 15 25 15 14 0 25 5 25 10 0 6 -11 10 -25 10 -16 0 -25 6 -25
16 0 13 8 15 35 12 19 -2 35 0 35 4 0 4 -21 8 -47 8 l-48 0 3 -55z"/>
<path d="M594 157 c-21 -50 -23 -80 -3 -44 13 23 65 23 78 0 5 -10 12 -15 15
-12 11 10 -38 109 -54 109 -9 0 -24 -22 -36 -53z m47 -10 c-15 -15 -30 1 -24
24 6 21 7 21 20 4 8 -12 9 -23 4 -28z"/>
<path d="M730 155 l0 -55 50 0 c28 0 50 5 50 10 0 6 -18 10 -40 10 l-40 0 0
45 c0 25 -4 45 -10 45 -5 0 -10 -25 -10 -55z"/>
<path d="M870 201 c22 -6 25 -13 28 -54 4 -63 22 -60 22 4 0 46 2 51 20 46 11
-3 20 -1 20 4 0 5 -26 9 -57 8 -40 -1 -50 -3 -33 -8z"/>
<path d="M1000 155 c0 -30 5 -55 10 -55 6 0 10 11 10 25 0 22 4 25 35 25 31 0
35 -3 35 -25 0 -14 5 -25 10 -25 6 0 10 25 10 55 0 30 -4 55 -10 55 -5 0 -10
-9 -10 -20 0 -16 -7 -20 -35 -20 -28 0 -35 4 -35 20 0 11 -4 20 -10 20 -5 0
-10 -25 -10 -55z"/>
<path d="M1445 155 l0 -55 48 0 c26 0 47 5 47 10 0 6 -18 10 -40 10 -29 0 -40
4 -40 15 0 10 10 15 30 15 17 0 30 5 30 10 0 6 -14 10 -31 10 -20 0 -29 4 -26
13 2 6 20 12 40 12 21 0 37 3 37 8 0 4 -21 7 -47 7 l-48 0 0 -55z"/>
<path d="M1594 157 c-21 -50 -23 -80 -3 -44 13 23 65 23 78 0 5 -10 12 -15 15
-12 11 10 -38 109 -54 109 -9 0 -24 -22 -36 -53z m47 -10 c-15 -15 -30 1 -24
24 6 21 7 21 20 4 8 -12 9 -23 4 -28z"/>
<path d="M1730 155 l0 -55 50 0 c28 0 50 5 50 10 0 6 -18 10 -40 10 l-40 0 0
45 c0 25 -4 45 -10 45 -5 0 -10 -25 -10 -55z"/>
<path d="M1870 201 c22 -6 25 -13 28 -54 4 -63 22 -60 22 4 0 46 2 51 20 46
11 -3 20 -1 20 4 0 5 -26 9 -57 8 -40 -1 -50 -3 -33 -8z"/>
<path d="M2000 155 c0 -30 5 -55 10 -55 6 0 10 11 10 25 0 22 4 25 35 25 31 0
35 -3 35 -25 0 -14 5 -25 10 -25 6 0 10 25 10 55 0 30 -4 55 -10 55 -5 0 -10
-9 -10 -20 0 -16 -7 -20 -35 -20 -28 0 -35 4 -35 20 0 11 -4 20 -10 20 -5 0
-10 -25 -10 -55z"/>
</g>
</svg>
